<svg xmlns="http://www.w3.org/2000/svg" width="120" height="120" fill="none" xmlns:v="https://vecta.io/nano"><style><![CDATA[.B{fill-rule:evenodd}.C{fill:#4d4d4d}]]></style><g fill="red"><path d="M101.264 98.825a4.39 4.39 0 0 0 3.796.754c.781-.215 1.483-.643 2.167-1.077s1.369-.883 2.135-1.147a4.96 4.96 0 0 1 4.476.683l-.517 1.326-8.059 5.747-1.519.462-1.321-.595-1.255-1.585.097-4.568z"/><path d="M98.538 82.988l-4.486 3.165c-.09.065-.123.194-.078.331s.158.255.283.297c.664.212 1.042.478 1.38.837s.642.838 1.07 1.438l2.582 3.614 1.484 9.65.003.02c.268 1.363.924 2.488 1.75 3.129.821.637 1.801.735 2.544.13l8.251-5.795c.836-.596 1.078-1.605.687-2.619-.388-1.006-1.338-1.949-2.702-2.572l-.027-.016-8.235-4.556-2.624-3.592-.033-.047-.977-1.433c-.23-.437-.359-.878-.347-1.578a.47.47 0 0 0-.188-.364c-.115-.088-.248-.104-.338-.038h0zm-.236 1.241a3.35 3.35 0 0 0 .379 1.159c.227.432.519.823.826 1.241l-1.005.708c-.009.005-.017.011-.025.017-.118.097-.113.304.012.467s.322.22.44.123l1.012-.712 1.672 2.284-1.055.742c-.008.005-.016.011-.024.017-.118.097-.113.304.012.467s.322.22.44.123l1.065-.75.407.557a.47.47 0 0 0 .146.132l1.969 1.089-1.083.762c-.008.005-.017.011-.024.017-.118.097-.113.304.012.467s.322.22.44.123l1.23-.867c.046-.031.076-.077.09-.134l2.171 1.202-1.041.732-.021.015c-.119.096-.115.306.009.469s.321.218.44.123l1.23-.867c.033-.022.055-.056.072-.093l2.099 1.16-.977.688c-.007.004-.015.01-.021.015-.119.096-.116.306.008.469s.321.219.44.123l1.231-.867c.012-.008.022-.019.032-.03l.041.021.027.016c1.238.559 1.963 1.369 2.237 2.082s.161 1.393-.537 1.891l-8.036 5.581c-.615.509-.946.259-1.547-.207s-1.054-1.473-1.289-2.67l-1.502-9.743c-.01-.068-.038-.137-.081-.198l-2.645-3.704c-.409-.573-.728-1.084-1.158-1.539-.284-.301-.54-.44-.951-.654l2.727-1.942.106-.105z"/></g><path d="M87.034 8.435c-2.869 0-5.605.484-8.158 1.371-.58.202-5.075 10.221-5.681 19.618 4.905 13.91 4.563 15.38 12.617 16.183.227-.141.437-.32.512-.363a6.4 6.4 0 0 1 .677-.594c.029-.022.053-.045.082-.066.093-.064.188-.123.281-.182.049-.031.099-.069.149-.099.022-.013.044-.02.066-.033a7.23 7.23 0 0 1 .363-.198l.231-.116a6.8 6.8 0 0 1 .429-.182c.071-.026.143-.058.215-.082s.154-.043.231-.066.141-.047.215-.066.153-.033.231-.05c.451-.081.611-.099 1.288-.116a7.21 7.21 0 0 1 2.312.446c3.636 1.789 4.937 7.051 6.275 10.998.231.813.45 1.624.644 2.444l.049.198.611 2.973c.037.192.063.386.1.578l.082.462c1.571 9.707.749 19.732-1.8 29.246-.265.631-.544 1.12-.981 1.413-.729.447-1.222 1.246-1.222 2.163 0 1.404 1.139 2.543 2.543 2.543 1.457.011 3.272-1.4 3.97-2.47.239-.367.458-.755.661-1.106l.148-.281c4.236-7.492 7.175-15.82 8.505-24.671l.281-1.998.033-.264a72.54 72.54 0 0 0 .214-2.048c.15-1.613.257-3.23.297-4.872l.017-1.8a71.65 71.65 0 0 0-2.196-17.637l-.661-2.46c-2.137-7.309-5.422-14.128-9.627-20.262-1.663-2.426-3.458-4.754-5.4-6.952-.216-.161-.195-.147-.446-.231-2.546-.882-5.297-1.371-8.158-1.371h0z" class="B C"/><g fill="#000"><path d="M10.15 69.478L3 109.028h11.031c.213-.389.262-.595.248-1.023-.005-.144-.071-.461-.198-.694-.304-.634-.332-.952-.429-1.437l-.182-1.387-.066-.578-.033-1.75c0-2.79.484-5.594 1.536-8.29 1.17-2.743 2.357-4.639 4.376-6.952-.68-7.131-.525-8.384-2.097-14.284-3.487-2.275-4.339-2.882-7.035-3.154z"/><path d="M66.974 44.576c-2.994 1.922-4.013 6.882-4.013 10.238.133 5.183.05 7.515.033 13.541.185.026.374.029.561.049h4.376l3.022 27.149c.2 1.689.355 3.553.05 5.615-.5 3.775-.557 4.045-1.321 7.86h10.948c.376-.443.627-1.009.627-1.634 0-.447-.112-.857-.314-1.222-.064-.116-.071-.139-.116-.199-.052-.069-.089-.131-.132-.198-.349-.513-.622-1.046-.644-1.09v-.016c-.238-.526-.657-1.565-.578-2.246 1.13-10.394 1.184-10.477 3.088-19.701 1.79-8.233 2.143-17.056.099-24.655a18.66 18.66 0 0 0 1.321-3.418c.581-2.04.505-3.817.66-5.631a6.77 6.77 0 0 1 1.998-4.079c-.035-.043-.06-.132-.116-.132l-19.552-.231h0z" class="B"/></g><path d="M36.206 22.834C19.617 23.356 6.172 35.309 4.45 51.172c2.48 4.431 5.541 5.867 6.442 6.045 5.439 1.074 5.659.745 9.989-1.421 6.19-8.818 16.397-14.741 28.057-15.242a23.26 23.26 0 0 1-1.305-7.728c0-2.697.459-5.294 1.305-7.712a33.62 33.62 0 0 0-12.402-2.279c-.111.005-.22-.005-.33 0z" class="B C"/><path d="M47.883 40.148c-11.383.492-21.355 6.294-27.398 14.939.232 9.422.38 6.843.38 14.919.368 2.575 5.623 10.799 7.972 12.361l.549.362c.321-.784.612-1.579 1.015-2.318 2.787-5.108 7.466-9.079 13.119-11.014l3.878-6.781.677-21.947-.233-.609.041.087z" fill="#000" class="B"/><path d="M47.883 40.201l.192.522.282-.539-.473.016h0zM29.744 85.439c-.012-.005-.024-.006-.035-.008l.008.044.028-.035v-.001z" fill-opacity=".556" fill="#626262"/><g class="C"><path d="M7.112 50.834a23.99 23.99 0 0 0-2.659.149c-.12 1.11-.182 2.244-.182 3.385 0 5.963 1.68 11.533 4.607 16.299 1.574 2.563 3.521 4.894 5.747 6.919l1.602 1.371 5.235 30.071h12.897a2.54 2.54 0 0 0 .099-.66c0-.627-.234-1.208-.611-1.651l-.049-.05-.908-.859c-.066-.082-.133-.181-.198-.264-.411-.52-.792-1.048-1.156-1.602a22.82 22.82 0 0 1-3.567-9.512c-.348-3.368-.267-5.606.661-9.33.274-.872.554-1.74.826-2.477a23.37 23.37 0 0 0 .644-2.081c.5-1.915.76-3.924.76-5.994 0-8.091-4.056-15.242-10.255-19.519-3.83-2.643-8.483-4.194-13.492-4.194h0z"/><path d="M47.897 39.975l-1.156 2.609c-2.674 5.873-4.162 12.393-4.162 19.255 0 2.524.207 4.999.595 7.415.348 2.168.877 4.693 1.618 7.2.456 1.542 1.09 3.01 1.717 4.442l2.774 7.448c.34 1.075.661 2.18.892 3.105.765 3.221.171 6.591-1.767 8.835l-5.974 4.862 5.198 5.145c.464.427 1.213.776 1.917.776 1.315 0 2.292-1.009 2.443-2.196.234-.449.456-.877.677-1.238.457-.68.993-1.316 1.552-1.949l.661-.644s2.927-3 3.98-4.789c.531-.902.914-1.902 1.139-2.923.321-1.458.43-2.78.281-4.475-.097-1.112-.155-1.434-.248-3.105-.013-6.381.37-12.521 2.18-18.396a53.4 53.4 0 0 1 1.189-3.187c.422-1.015.806-1.874 1.321-2.774.868-1.764 2.085-3.429 2.972-5.202 1.071-2.127 1.115-4.008 1.139-6.077 0-.368-.015-.739-.033-1.106-.007-.153-.006-.309-.016-.462-.124-2.292-.507-4.517-1.106-6.655-.005-.017-.012-.033-.016-.05-.046-.197-.126-.483-.173-.679-.067-.24 0-.264-.141-.394-5.993-4.849-12.926-5.629-19.453-4.789h0z" class="B"/></g><path d="M70.351 8a23.91 23.91 0 0 0-3.62.274l-.074-.025.045.03c-5.529.853-10.434 3.615-14.038 7.601a24.25 24.25 0 0 0-3.988 6.01c-.342.732-.647 1.488-.916 2.258-.879 2.518-1.358 5.226-1.358 8.048 0 2.744.451 5.488 1.284 7.947l.474-.017 1.1-.021a34.4 34.4 0 0 1 .875.013c6.256.154 12.104 1.855 17.139 4.895.513.309 1.018.632 2.182 1.632s4.357 2.457 7.88 2.457c.376 0 .748-.018 1.117-.051 2.154-.19 4.159-.926 5.882-2.072.754-.502 1.409-1.107 2.045-1.755-.229-.289-.409-.554-.63-.849a39.33 39.33 0 0 1-7.804-21.942c-.024-.568-.037-1.139-.037-1.713a40.14 40.14 0 0 1 .184-3.845l.127-1.156c.255-2.026.662-4.162 1.211-6.08a23.59 23.59 0 0 0-1.329-.502C75.67 8.297 73.063 8 70.351 8h0z" fill="red" class="B"/></svg>
